# xmcd
#
# Track frame offsets: 
#        150
#        32727
#        62597
#        98725
#        130107
#        151797
#        173900
#        197970
#        230172
#        259135
#
# Disc length: 4390 seconds
#
# Revision: 0
# Processed by: cddbd v1.5.2PL0 Copyright (c) Steve Scherf et al.
# Submitted via: ExactAudioCopy v0.99pb5
#
DISCID=8311240a
DTITLE=Various Artist - Strictly Rhythm - The Compilation
DYEAR=1993
DGENRE=House
TTITLE0=Sole Fusion - We Can Make It (Underground Network Mix)
TTITLE1=Phuture - Rise From The Grave (Wild Pitch Remix)
TTITLE2=Aly-Us - Go On (Club Mix)
TTITLE3=Capone - People (Bop 'Til You Drop Mix)
TTITLE4=De La Noche - Spanish Fly (Dub Mix)
TTITLE5=House 2 House - Let Me Tell You Somethin' (Dub Mix)
TTITLE6=Hardrive - Sindae (Kenlou Dub)
TTITLE7=K.E.L.S.E.Y. - Boy (M.K. Deep Dub)
TTITLE8=Aly-Us - Follow Me (Club Mix)
TTITLE9=Various Artist - 15 Minutes Megamix - The Strictly Rhythm '93 Mega Me
TTITLE9=lody
EXTD=
EXTT0=
EXTT1=
EXTT2=
EXTT3=
EXTT4=
EXTT5=
EXTT6=
EXTT7=
EXTT8=
EXTT9=
PLAYORDER=
